<svg xmlns="http://www.w3.org/2000/svg" width="128" height="128" viewBox="0 0 16 16" shape-rendering="crispEdges" role="img" aria-label="voCloud musteri">
<rect x="1" y="3" width="14" height="1" fill="#818CF8"/>
<rect x="1" y="4" width="14" height="1" fill="#4F46E5"/>
<rect x="1" y="5" width="2" height="1" fill="#4F46E5"/>
<rect x="3" y="5" width="4" height="1" fill="#C7D2FE"/>
<rect x="7" y="5" width="8" height="1" fill="#4F46E5"/>
<rect x="1" y="6" width="2" height="1" fill="#4F46E5"/>
<rect x="3" y="6" width="4" height="1" fill="#C7D2FE"/>
<rect x="7" y="6" width="2" height="1" fill="#4F46E5"/>
<rect x="9" y="6" width="5" height="1" fill="#C7D2FE"/>
<rect x="14" y="6" width="1" height="1" fill="#4F46E5"/>
<rect x="1" y="7" width="2" height="1" fill="#4F46E5"/>
<rect x="3" y="7" width="4" height="1" fill="#C7D2FE"/>
<rect x="7" y="7" width="8" height="1" fill="#4F46E5"/>
<rect x="1" y="8" width="2" height="1" fill="#4F46E5"/>
<rect x="3" y="8" width="4" height="1" fill="#C7D2FE"/>
<rect x="7" y="8" width="2" height="1" fill="#4F46E5"/>
<rect x="9" y="8" width="4" height="1" fill="#A5B4FC"/>
<rect x="13" y="8" width="2" height="1" fill="#4F46E5"/>
<rect x="1" y="9" width="14" height="1" fill="#4F46E5"/>
<rect x="1" y="10" width="3" height="1" fill="#4F46E5"/>
<rect x="4" y="10" width="4" height="1" fill="#A5B4FC"/>
<rect x="8" y="10" width="1" height="1" fill="#4F46E5"/>
<rect x="9" y="10" width="5" height="1" fill="#3730A3"/>
<rect x="14" y="10" width="1" height="1" fill="#4F46E5"/>
<rect x="1" y="11" width="3" height="1" fill="#4F46E5"/>
<rect x="4" y="11" width="4" height="1" fill="#A5B4FC"/>
<rect x="8" y="11" width="7" height="1" fill="#4F46E5"/>
<rect x="1" y="12" width="14" height="1" fill="#3730A3"/>
</svg>
