<svg xmlns="http://www.w3.org/2000/svg" width="128" height="128" viewBox="0 0 16 16" shape-rendering="crispEdges" role="img" aria-label="voCloud veritabani">
<rect x="3" y="0" width="10" height="1" fill="#818CF8"/>
<rect x="2" y="1" width="12" height="1" fill="#818CF8"/>
<rect x="2" y="2" width="2" height="1" fill="#818CF8"/>
<rect x="4" y="2" width="6" height="1" fill="#C7D2FE"/>
<rect x="10" y="2" width="4" height="1" fill="#818CF8"/>
<rect x="2" y="3" width="12" height="1" fill="#818CF8"/>
<rect x="2" y="4" width="12" height="1" fill="#818CF8"/>
<rect x="2" y="5" width="12" height="1" fill="#818CF8"/>
<rect x="2" y="6" width="12" height="1" fill="#818CF8"/>
<rect x="2" y="7" width="12" height="1" fill="#3730A3"/>
<rect x="2" y="8" width="12" height="1" fill="#6366F1"/>
<rect x="2" y="9" width="3" height="1" fill="#4F46E5"/>
<rect x="5" y="9" width="6" height="1" fill="#818CF8"/>
<rect x="11" y="9" width="3" height="1" fill="#4F46E5"/>
<rect x="2" y="10" width="12" height="1" fill="#3730A3"/>
<rect x="2" y="11" width="12" height="1" fill="#6366F1"/>
<rect x="2" y="12" width="12" height="1" fill="#4F46E5"/>
<rect x="2" y="13" width="12" height="1" fill="#3730A3"/>
<rect x="3" y="14" width="10" height="1" fill="#2A2480"/>
</svg>
