<svg xmlns="http://www.w3.org/2000/svg" width="128" height="128" viewBox="0 0 16 16" shape-rendering="crispEdges" role="img" aria-label="voCloud sunucu">
<rect x="1" y="2" width="14" height="1" fill="#818CF8"/>
<rect x="1" y="3" width="2" height="1" fill="#4F46E5"/>
<rect x="3" y="3" width="1" height="1" fill="#C7D2FE"/>
<rect x="4" y="3" width="1" height="1" fill="#4F46E5"/>
<rect x="5" y="3" width="1" height="1" fill="#A5B4FC"/>
<rect x="6" y="3" width="4" height="1" fill="#4F46E5"/>
<rect x="10" y="3" width="4" height="1" fill="#3730A3"/>
<rect x="14" y="3" width="1" height="1" fill="#4F46E5"/>
<rect x="1" y="4" width="14" height="1" fill="#4F46E5"/>
<rect x="1" y="5" width="14" height="1" fill="#3730A3"/>
<rect x="1" y="7" width="14" height="1" fill="#818CF8"/>
<rect x="1" y="8" width="2" height="1" fill="#4F46E5"/>
<rect x="3" y="8" width="1" height="1" fill="#C7D2FE"/>
<rect x="4" y="8" width="1" height="1" fill="#4F46E5"/>
<rect x="5" y="8" width="1" height="1" fill="#A5B4FC"/>
<rect x="6" y="8" width="4" height="1" fill="#4F46E5"/>
<rect x="10" y="8" width="4" height="1" fill="#3730A3"/>
<rect x="14" y="8" width="1" height="1" fill="#4F46E5"/>
<rect x="1" y="9" width="14" height="1" fill="#4F46E5"/>
<rect x="1" y="10" width="14" height="1" fill="#3730A3"/>
<rect x="1" y="12" width="14" height="1" fill="#818CF8"/>
<rect x="1" y="13" width="2" height="1" fill="#4F46E5"/>
<rect x="3" y="13" width="1" height="1" fill="#C7D2FE"/>
<rect x="4" y="13" width="1" height="1" fill="#4F46E5"/>
<rect x="5" y="13" width="1" height="1" fill="#A5B4FC"/>
<rect x="6" y="13" width="4" height="1" fill="#4F46E5"/>
<rect x="10" y="13" width="4" height="1" fill="#3730A3"/>
<rect x="14" y="13" width="1" height="1" fill="#4F46E5"/>
<rect x="1" y="14" width="14" height="1" fill="#4F46E5"/>
<rect x="1" y="15" width="14" height="1" fill="#3730A3"/>
</svg>
